<mxfile host="app.diagrams.net" agent="Mozilla/5.0 (Windows NT 10.0; Win64; x64; rv:138.0) Gecko/20100101 Firefox/138.0" version="27.0.5">
  <diagram name="Page-1" id="EcHufwy6RgSnc1rd-ehm">
    <mxGraphModel dx="1426" dy="751" grid="1" gridSize="10" guides="1" tooltips="1" connect="1" arrows="1" fold="1" page="1" pageScale="1" pageWidth="850" pageHeight="1100" math="0" shadow="0">
      <root>
        <mxCell id="0" />
        <mxCell id="1" parent="0" />
        <mxCell id="GEaLmOAD5hD9nEtX9Bgx-6" style="edgeStyle=orthogonalEdgeStyle;rounded=0;orthogonalLoop=1;jettySize=auto;html=1;entryX=0;entryY=0.5;entryDx=0;entryDy=0;" edge="1" parent="1" source="GEaLmOAD5hD9nEtX9Bgx-1" target="GEaLmOAD5hD9nEtX9Bgx-3">
          <mxGeometry relative="1" as="geometry" />
        </mxCell>
        <mxCell id="GEaLmOAD5hD9nEtX9Bgx-7" style="edgeStyle=orthogonalEdgeStyle;rounded=0;orthogonalLoop=1;jettySize=auto;html=1;entryX=0;entryY=0.5;entryDx=0;entryDy=0;" edge="1" parent="1" source="GEaLmOAD5hD9nEtX9Bgx-1" target="GEaLmOAD5hD9nEtX9Bgx-2">
          <mxGeometry relative="1" as="geometry" />
        </mxCell>
        <mxCell id="GEaLmOAD5hD9nEtX9Bgx-8" style="edgeStyle=orthogonalEdgeStyle;rounded=0;orthogonalLoop=1;jettySize=auto;html=1;entryX=0;entryY=0.5;entryDx=0;entryDy=0;" edge="1" parent="1" source="GEaLmOAD5hD9nEtX9Bgx-1" target="GEaLmOAD5hD9nEtX9Bgx-4">
          <mxGeometry relative="1" as="geometry" />
        </mxCell>
        <mxCell id="GEaLmOAD5hD9nEtX9Bgx-1" value="Manager" style="shape=umlActor;verticalLabelPosition=bottom;verticalAlign=top;html=1;" vertex="1" parent="1">
          <mxGeometry x="110" y="240" width="100" height="210" as="geometry" />
        </mxCell>
        <mxCell id="GEaLmOAD5hD9nEtX9Bgx-2" value="Add, Update, Delete Product" style="ellipse;whiteSpace=wrap;html=1;" vertex="1" parent="1">
          <mxGeometry x="370" y="180" width="140" height="70" as="geometry" />
        </mxCell>
        <mxCell id="GEaLmOAD5hD9nEtX9Bgx-3" value="Add, Update, Delete Client" style="ellipse;whiteSpace=wrap;html=1;" vertex="1" parent="1">
          <mxGeometry x="370" y="260" width="140" height="70" as="geometry" />
        </mxCell>
        <mxCell id="GEaLmOAD5hD9nEtX9Bgx-4" value="Add Order" style="ellipse;whiteSpace=wrap;html=1;" vertex="1" parent="1">
          <mxGeometry x="370" y="340" width="140" height="70" as="geometry" />
        </mxCell>
        <mxCell id="GEaLmOAD5hD9nEtX9Bgx-5" value="View Log" style="ellipse;whiteSpace=wrap;html=1;" vertex="1" parent="1">
          <mxGeometry x="370" y="420" width="140" height="70" as="geometry" />
        </mxCell>
        <mxCell id="GEaLmOAD5hD9nEtX9Bgx-9" style="edgeStyle=orthogonalEdgeStyle;rounded=0;orthogonalLoop=1;jettySize=auto;html=1;entryX=0.057;entryY=0.543;entryDx=0;entryDy=0;entryPerimeter=0;" edge="1" parent="1" source="GEaLmOAD5hD9nEtX9Bgx-1" target="GEaLmOAD5hD9nEtX9Bgx-5">
          <mxGeometry relative="1" as="geometry" />
        </mxCell>
        <mxCell id="GEaLmOAD5hD9nEtX9Bgx-11" value="" style="endArrow=none;html=1;rounded=0;" edge="1" parent="1">
          <mxGeometry width="50" height="50" relative="1" as="geometry">
            <mxPoint x="530" y="140" as="sourcePoint" />
            <mxPoint x="270" y="140" as="targetPoint" />
          </mxGeometry>
        </mxCell>
        <mxCell id="GEaLmOAD5hD9nEtX9Bgx-12" value="" style="endArrow=none;html=1;rounded=0;" edge="1" parent="1">
          <mxGeometry width="50" height="50" relative="1" as="geometry">
            <mxPoint x="270" y="530" as="sourcePoint" />
            <mxPoint x="270" y="140" as="targetPoint" />
          </mxGeometry>
        </mxCell>
        <mxCell id="GEaLmOAD5hD9nEtX9Bgx-13" value="" style="endArrow=none;html=1;rounded=0;" edge="1" parent="1">
          <mxGeometry width="50" height="50" relative="1" as="geometry">
            <mxPoint x="270" y="530" as="sourcePoint" />
            <mxPoint x="530" y="530" as="targetPoint" />
          </mxGeometry>
        </mxCell>
        <mxCell id="GEaLmOAD5hD9nEtX9Bgx-14" value="" style="endArrow=none;html=1;rounded=0;" edge="1" parent="1">
          <mxGeometry width="50" height="50" relative="1" as="geometry">
            <mxPoint x="530" y="530" as="sourcePoint" />
            <mxPoint x="530" y="140" as="targetPoint" />
          </mxGeometry>
        </mxCell>
        <mxCell id="GEaLmOAD5hD9nEtX9Bgx-15" value="Order Management Application" style="text;html=1;align=center;verticalAlign=middle;whiteSpace=wrap;rounded=0;" vertex="1" parent="1">
          <mxGeometry x="290" y="110" width="210" height="30" as="geometry" />
        </mxCell>
      </root>
    </mxGraphModel>
  </diagram>
</mxfile>
